<?xml version="1.0" encoding="UTF-8"?>
<svg width="128px" height="128px" viewBox="0 0 128 128" version="1.1" xmlns="http://www.w3.org/2000/svg" xmlns:xlink="http://www.w3.org/1999/xlink">
    <!-- Generator: Sketch 47.1 (45422) - http://www.bohemiancoding.com/sketch -->
    <title>favicon</title>
    <desc>Created with Sketch.</desc>
    <defs>
        <circle id="path-1" cx="64" cy="8" r="8"></circle>
        <circle id="path-2" cx="120" cy="64" r="8"></circle>
        <circle id="path-3" cx="104" cy="24" r="8"></circle>
        <circle id="path-4" cx="25" cy="0" r="8"></circle>
        <circle id="path-5" cx="128" cy="103" r="8"></circle>
    </defs>
    <g id="Page-3" stroke="none" stroke-width="1" fill="none" fill-rule="evenodd">
        <g id="favicon">
            <g id="Oval-2">
                <use fill="#FFFFFF" fill-rule="evenodd" xlink:href="#path-1"></use>
                <circle stroke="#000000" stroke-width="3" cx="64" cy="8" r="6.5"></circle>
            </g>
            <g id="Oval-2-Copy">
                <use fill="#FFFFFF" fill-rule="evenodd" xlink:href="#path-2"></use>
                <circle stroke="#000000" stroke-width="3" cx="120" cy="64" r="6.5"></circle>
            </g>
            <g id="Oval-2-Copy-2">
                <use fill="#FFFFFF" fill-rule="evenodd" xlink:href="#path-3"></use>
                <circle stroke="#000000" stroke-width="3" cx="104" cy="24" r="6.5"></circle>
            </g>
            <g id="Oval-2-Copy-3">
                <use fill="#FFFFFF" fill-rule="evenodd" xlink:href="#path-4"></use>
                <circle stroke="#000000" stroke-width="3" cx="25" cy="0" r="6.5"></circle>
            </g>
            <g id="Oval-2-Copy-4">
                <use fill="#FFFFFF" fill-rule="evenodd" xlink:href="#path-5"></use>
                <circle stroke="#000000" stroke-width="3" cx="128" cy="103" r="6.5"></circle>
            </g>
            <path d="M28.8903909,91.882251 C28.232275,94.4392104 27.882251,97.1198544 27.882251,99.882251 C27.882251,117.555363 42.209139,131.882251 59.882251,131.882251 C77.555363,131.882251 91.882251,117.555363 91.882251,99.882251 C91.882251,97.1198544 91.532227,94.4392104 90.8741111,91.882251 L90.882251,91.882251 L90.8515431,91.7950803 C90.399453,90.0589902 89.8052405,88.3802643 89.082074,86.772071 L59.882251,3.88225099 L30.682428,86.772071 C29.9592615,88.3802643 29.365049,90.0589902 28.9129589,91.7950803 L28.882251,91.882251 L28.8903909,91.882251 Z" id="Combined-Shape" stroke="#FFFFFF" stroke-width="2" fill="#000000" transform="translate(59.882251, 67.882251) rotate(45.000000) translate(-59.882251, -67.882251) "></path>
        </g>
    </g>
</svg>